<mxfile host="app.diagrams.net" modified="2020-06-24T00:00:52.031Z" agent="5.0 (Windows)" etag="BZapL2sMAtBV_w0zHVNn" version="13.3.1" type="github">
  <diagram id="WYZ9oJHfD-WIZ5Im6gJm" name="Page-1">
    <mxGraphModel dx="1422" dy="765" grid="1" gridSize="10" guides="1" tooltips="1" connect="1" arrows="1" fold="1" page="1" pageScale="1" pageWidth="850" pageHeight="1100" math="0" shadow="0">
      <root>
        <mxCell id="0" />
        <mxCell id="1" parent="0" />
        <mxCell id="TD67UPYNWnN1uYw1Mizn-49" value="" style="ellipse;whiteSpace=wrap;html=1;aspect=fixed;" vertex="1" parent="1">
          <mxGeometry x="430" y="660" width="20" height="20" as="geometry" />
        </mxCell>
        <mxCell id="TD67UPYNWnN1uYw1Mizn-4" value="" style="edgeStyle=orthogonalEdgeStyle;rounded=0;orthogonalLoop=1;jettySize=auto;html=1;" edge="1" parent="1" source="TD67UPYNWnN1uYw1Mizn-2">
          <mxGeometry relative="1" as="geometry">
            <mxPoint x="482.98" y="120" as="targetPoint" />
          </mxGeometry>
        </mxCell>
        <mxCell id="TD67UPYNWnN1uYw1Mizn-2" value="" style="ellipse;whiteSpace=wrap;html=1;aspect=fixed;fillColor=#0050ef;strokeColor=#001DBC;fontColor=#ffffff;" vertex="1" parent="1">
          <mxGeometry x="467.98" y="40" width="30" height="30" as="geometry" />
        </mxCell>
        <mxCell id="TD67UPYNWnN1uYw1Mizn-9" value="" style="edgeStyle=orthogonalEdgeStyle;rounded=0;orthogonalLoop=1;jettySize=auto;html=1;" edge="1" parent="1" source="TD67UPYNWnN1uYw1Mizn-7">
          <mxGeometry relative="1" as="geometry">
            <mxPoint x="210" y="180" as="targetPoint" />
          </mxGeometry>
        </mxCell>
        <mxCell id="TD67UPYNWnN1uYw1Mizn-13" value="Add" style="edgeLabel;html=1;align=center;verticalAlign=middle;resizable=0;points=[];" vertex="1" connectable="0" parent="TD67UPYNWnN1uYw1Mizn-9">
          <mxGeometry x="0.8022" y="202" relative="1" as="geometry">
            <mxPoint as="offset" />
          </mxGeometry>
        </mxCell>
        <mxCell id="TD67UPYNWnN1uYw1Mizn-11" value="" style="edgeStyle=orthogonalEdgeStyle;rounded=0;orthogonalLoop=1;jettySize=auto;html=1;entryX=0.5;entryY=0;entryDx=0;entryDy=0;" edge="1" parent="1" source="TD67UPYNWnN1uYw1Mizn-7" target="TD67UPYNWnN1uYw1Mizn-51">
          <mxGeometry relative="1" as="geometry">
            <mxPoint x="650" y="167" as="targetPoint" />
          </mxGeometry>
        </mxCell>
        <mxCell id="TD67UPYNWnN1uYw1Mizn-14" value="Remove" style="edgeLabel;html=1;align=center;verticalAlign=middle;resizable=0;points=[];" vertex="1" connectable="0" parent="TD67UPYNWnN1uYw1Mizn-11">
          <mxGeometry x="-0.2069" relative="1" as="geometry">
            <mxPoint as="offset" />
          </mxGeometry>
        </mxCell>
        <mxCell id="TD67UPYNWnN1uYw1Mizn-7" value="" style="rhombus;whiteSpace=wrap;html=1;" vertex="1" parent="1">
          <mxGeometry x="460.98" y="120" width="45" height="40" as="geometry" />
        </mxCell>
        <mxCell id="TD67UPYNWnN1uYw1Mizn-15" value="Input course title" style="rounded=1;whiteSpace=wrap;html=1;" vertex="1" parent="1">
          <mxGeometry x="20" y="220" width="80" height="60" as="geometry" />
        </mxCell>
        <mxCell id="TD67UPYNWnN1uYw1Mizn-16" value="" style="endArrow=none;html=1;" edge="1" parent="1">
          <mxGeometry width="50" height="50" relative="1" as="geometry">
            <mxPoint x="40" y="180" as="sourcePoint" />
            <mxPoint x="450" y="180" as="targetPoint" />
          </mxGeometry>
        </mxCell>
        <mxCell id="TD67UPYNWnN1uYw1Mizn-17" value="" style="endArrow=classic;html=1;entryX=0.5;entryY=0;entryDx=0;entryDy=0;" edge="1" parent="1" target="TD67UPYNWnN1uYw1Mizn-15">
          <mxGeometry width="50" height="50" relative="1" as="geometry">
            <mxPoint x="60" y="180" as="sourcePoint" />
            <mxPoint x="280" y="200" as="targetPoint" />
          </mxGeometry>
        </mxCell>
        <mxCell id="TD67UPYNWnN1uYw1Mizn-18" value="" style="endArrow=classic;html=1;entryX=0.5;entryY=0;entryDx=0;entryDy=0;" edge="1" parent="1" target="TD67UPYNWnN1uYw1Mizn-19">
          <mxGeometry width="50" height="50" relative="1" as="geometry">
            <mxPoint x="140" y="180" as="sourcePoint" />
            <mxPoint x="190" y="220" as="targetPoint" />
          </mxGeometry>
        </mxCell>
        <mxCell id="TD67UPYNWnN1uYw1Mizn-19" value="Input CRN" style="rounded=1;whiteSpace=wrap;html=1;" vertex="1" parent="1">
          <mxGeometry x="110" y="220" width="60" height="60" as="geometry" />
        </mxCell>
        <mxCell id="TD67UPYNWnN1uYw1Mizn-20" value="Input Dept" style="rounded=1;whiteSpace=wrap;html=1;" vertex="1" parent="1">
          <mxGeometry x="180" y="220" width="60" height="60" as="geometry" />
        </mxCell>
        <mxCell id="TD67UPYNWnN1uYw1Mizn-22" value="Input Time Slot, Day, Year" style="rounded=1;whiteSpace=wrap;html=1;" vertex="1" parent="1">
          <mxGeometry x="250" y="220" width="60" height="60" as="geometry" />
        </mxCell>
        <mxCell id="TD67UPYNWnN1uYw1Mizn-23" value="" style="endArrow=classic;html=1;entryX=0.5;entryY=0;entryDx=0;entryDy=0;" edge="1" parent="1" target="TD67UPYNWnN1uYw1Mizn-20">
          <mxGeometry width="50" height="50" relative="1" as="geometry">
            <mxPoint x="210" y="180" as="sourcePoint" />
            <mxPoint x="200" y="90" as="targetPoint" />
          </mxGeometry>
        </mxCell>
        <mxCell id="TD67UPYNWnN1uYw1Mizn-24" value="" style="endArrow=classic;html=1;entryX=0.5;entryY=0;entryDx=0;entryDy=0;" edge="1" parent="1" target="TD67UPYNWnN1uYw1Mizn-22">
          <mxGeometry width="50" height="50" relative="1" as="geometry">
            <mxPoint x="280" y="180" as="sourcePoint" />
            <mxPoint x="260" y="220" as="targetPoint" />
            <Array as="points" />
          </mxGeometry>
        </mxCell>
        <mxCell id="TD67UPYNWnN1uYw1Mizn-25" value="Input Instructor" style="rounded=1;whiteSpace=wrap;html=1;" vertex="1" parent="1">
          <mxGeometry x="320" y="220" width="60" height="60" as="geometry" />
        </mxCell>
        <mxCell id="TD67UPYNWnN1uYw1Mizn-26" value="" style="endArrow=classic;html=1;entryX=0.5;entryY=0;entryDx=0;entryDy=0;" edge="1" parent="1">
          <mxGeometry width="50" height="50" relative="1" as="geometry">
            <mxPoint x="350" y="180" as="sourcePoint" />
            <mxPoint x="350" y="220" as="targetPoint" />
            <Array as="points" />
          </mxGeometry>
        </mxCell>
        <mxCell id="TD67UPYNWnN1uYw1Mizn-27" value="Input Credits" style="rounded=1;whiteSpace=wrap;html=1;" vertex="1" parent="1">
          <mxGeometry x="390" y="220" width="60" height="60" as="geometry" />
        </mxCell>
        <mxCell id="TD67UPYNWnN1uYw1Mizn-28" value="" style="endArrow=classic;html=1;entryX=0.5;entryY=0;entryDx=0;entryDy=0;" edge="1" parent="1" target="TD67UPYNWnN1uYw1Mizn-27">
          <mxGeometry width="50" height="50" relative="1" as="geometry">
            <mxPoint x="420" y="180" as="sourcePoint" />
            <mxPoint x="530" y="190" as="targetPoint" />
          </mxGeometry>
        </mxCell>
        <mxCell id="TD67UPYNWnN1uYw1Mizn-39" value="" style="edgeStyle=orthogonalEdgeStyle;rounded=0;orthogonalLoop=1;jettySize=auto;html=1;" edge="1" parent="1" source="TD67UPYNWnN1uYw1Mizn-29" target="TD67UPYNWnN1uYw1Mizn-38">
          <mxGeometry relative="1" as="geometry" />
        </mxCell>
        <mxCell id="TD67UPYNWnN1uYw1Mizn-29" value="Information added to database" style="rounded=1;whiteSpace=wrap;html=1;" vertex="1" parent="1">
          <mxGeometry x="170" y="360" width="120" height="60" as="geometry" />
        </mxCell>
        <mxCell id="TD67UPYNWnN1uYw1Mizn-30" value="" style="endArrow=none;html=1;" edge="1" parent="1">
          <mxGeometry width="50" height="50" relative="1" as="geometry">
            <mxPoint x="40" y="320" as="sourcePoint" />
            <mxPoint x="450" y="320" as="targetPoint" />
          </mxGeometry>
        </mxCell>
        <mxCell id="TD67UPYNWnN1uYw1Mizn-31" value="" style="endArrow=classic;html=1;entryX=0.5;entryY=0;entryDx=0;entryDy=0;" edge="1" parent="1">
          <mxGeometry width="50" height="50" relative="1" as="geometry">
            <mxPoint x="60" y="280" as="sourcePoint" />
            <mxPoint x="60" y="320" as="targetPoint" />
          </mxGeometry>
        </mxCell>
        <mxCell id="TD67UPYNWnN1uYw1Mizn-32" value="" style="endArrow=classic;html=1;entryX=0.5;entryY=0;entryDx=0;entryDy=0;" edge="1" parent="1">
          <mxGeometry width="50" height="50" relative="1" as="geometry">
            <mxPoint x="140" y="280" as="sourcePoint" />
            <mxPoint x="140" y="320" as="targetPoint" />
          </mxGeometry>
        </mxCell>
        <mxCell id="TD67UPYNWnN1uYw1Mizn-33" value="" style="endArrow=classic;html=1;entryX=0.5;entryY=0;entryDx=0;entryDy=0;" edge="1" parent="1">
          <mxGeometry width="50" height="50" relative="1" as="geometry">
            <mxPoint x="210" y="280" as="sourcePoint" />
            <mxPoint x="210" y="320" as="targetPoint" />
          </mxGeometry>
        </mxCell>
        <mxCell id="TD67UPYNWnN1uYw1Mizn-34" value="" style="endArrow=classic;html=1;entryX=0.5;entryY=0;entryDx=0;entryDy=0;" edge="1" parent="1">
          <mxGeometry width="50" height="50" relative="1" as="geometry">
            <mxPoint x="280" y="280" as="sourcePoint" />
            <mxPoint x="280" y="320" as="targetPoint" />
            <Array as="points" />
          </mxGeometry>
        </mxCell>
        <mxCell id="TD67UPYNWnN1uYw1Mizn-35" value="" style="endArrow=classic;html=1;entryX=0.5;entryY=0;entryDx=0;entryDy=0;" edge="1" parent="1">
          <mxGeometry width="50" height="50" relative="1" as="geometry">
            <mxPoint x="350" y="280" as="sourcePoint" />
            <mxPoint x="350" y="320" as="targetPoint" />
            <Array as="points" />
          </mxGeometry>
        </mxCell>
        <mxCell id="TD67UPYNWnN1uYw1Mizn-36" value="" style="endArrow=classic;html=1;entryX=0.5;entryY=0;entryDx=0;entryDy=0;" edge="1" parent="1">
          <mxGeometry width="50" height="50" relative="1" as="geometry">
            <mxPoint x="420" y="280" as="sourcePoint" />
            <mxPoint x="420" y="320" as="targetPoint" />
          </mxGeometry>
        </mxCell>
        <mxCell id="TD67UPYNWnN1uYw1Mizn-37" value="" style="endArrow=classic;html=1;entryX=0.5;entryY=0;entryDx=0;entryDy=0;" edge="1" parent="1" target="TD67UPYNWnN1uYw1Mizn-29">
          <mxGeometry width="50" height="50" relative="1" as="geometry">
            <mxPoint x="230" y="320" as="sourcePoint" />
            <mxPoint x="150" y="410" as="targetPoint" />
          </mxGeometry>
        </mxCell>
        <mxCell id="TD67UPYNWnN1uYw1Mizn-38" value="&lt;div&gt;&amp;lt;&amp;lt;system&amp;gt;&amp;gt;&lt;/div&gt;&lt;div&gt;Course Database&lt;br&gt;&lt;/div&gt;" style="rounded=0;whiteSpace=wrap;html=1;" vertex="1" parent="1">
          <mxGeometry x="365" y="360" width="120" height="60" as="geometry" />
        </mxCell>
        <mxCell id="TD67UPYNWnN1uYw1Mizn-41" value="" style="endArrow=classic;html=1;exitX=0.5;exitY=1;exitDx=0;exitDy=0;entryX=0.5;entryY=0;entryDx=0;entryDy=0;" edge="1" parent="1" source="TD67UPYNWnN1uYw1Mizn-29">
          <mxGeometry width="50" height="50" relative="1" as="geometry">
            <mxPoint x="120" y="500" as="sourcePoint" />
            <mxPoint x="230" y="490" as="targetPoint" />
          </mxGeometry>
        </mxCell>
        <mxCell id="TD67UPYNWnN1uYw1Mizn-44" value="" style="edgeStyle=orthogonalEdgeStyle;rounded=0;orthogonalLoop=1;jettySize=auto;html=1;" edge="1" parent="1" source="TD67UPYNWnN1uYw1Mizn-42">
          <mxGeometry relative="1" as="geometry">
            <mxPoint x="230" y="610" as="targetPoint" />
          </mxGeometry>
        </mxCell>
        <mxCell id="TD67UPYNWnN1uYw1Mizn-45" value="done adding courses" style="edgeLabel;html=1;align=center;verticalAlign=middle;resizable=0;points=[];" vertex="1" connectable="0" parent="TD67UPYNWnN1uYw1Mizn-44">
          <mxGeometry x="0.2948" y="2" relative="1" as="geometry">
            <mxPoint x="-2" y="-11.719999999999999" as="offset" />
          </mxGeometry>
        </mxCell>
        <mxCell id="TD67UPYNWnN1uYw1Mizn-42" value="" style="rhombus;whiteSpace=wrap;html=1;" vertex="1" parent="1">
          <mxGeometry x="210" y="490" width="40" height="40" as="geometry" />
        </mxCell>
        <mxCell id="TD67UPYNWnN1uYw1Mizn-46" value="" style="endArrow=classic;html=1;exitX=0;exitY=0.5;exitDx=0;exitDy=0;" edge="1" parent="1" source="TD67UPYNWnN1uYw1Mizn-42">
          <mxGeometry width="50" height="50" relative="1" as="geometry">
            <mxPoint x="140" y="540" as="sourcePoint" />
            <mxPoint x="480" y="90" as="targetPoint" />
            <Array as="points">
              <mxPoint x="10" y="510" />
              <mxPoint x="10" y="90" />
            </Array>
          </mxGeometry>
        </mxCell>
        <mxCell id="TD67UPYNWnN1uYw1Mizn-47" value="not done adding courses" style="edgeLabel;html=1;align=center;verticalAlign=middle;resizable=0;points=[];" vertex="1" connectable="0" parent="TD67UPYNWnN1uYw1Mizn-46">
          <mxGeometry x="0.2302" y="-1" relative="1" as="geometry">
            <mxPoint x="69.66" y="419" as="offset" />
          </mxGeometry>
        </mxCell>
        <mxCell id="TD67UPYNWnN1uYw1Mizn-48" value="" style="ellipse;whiteSpace=wrap;html=1;aspect=fixed;" vertex="1" parent="1">
          <mxGeometry x="435" y="665" width="10" height="10" as="geometry" />
        </mxCell>
        <mxCell id="TD67UPYNWnN1uYw1Mizn-53" value="" style="edgeStyle=orthogonalEdgeStyle;rounded=0;orthogonalLoop=1;jettySize=auto;html=1;" edge="1" parent="1" source="TD67UPYNWnN1uYw1Mizn-51" target="TD67UPYNWnN1uYw1Mizn-52">
          <mxGeometry relative="1" as="geometry" />
        </mxCell>
        <mxCell id="TD67UPYNWnN1uYw1Mizn-51" value="Type CRN of course to remove" style="rounded=1;whiteSpace=wrap;html=1;" vertex="1" parent="1">
          <mxGeometry x="570" y="170" width="120" height="60" as="geometry" />
        </mxCell>
        <mxCell id="TD67UPYNWnN1uYw1Mizn-58" value="" style="edgeStyle=orthogonalEdgeStyle;rounded=0;orthogonalLoop=1;jettySize=auto;html=1;" edge="1" parent="1" source="TD67UPYNWnN1uYw1Mizn-52" target="TD67UPYNWnN1uYw1Mizn-57">
          <mxGeometry relative="1" as="geometry" />
        </mxCell>
        <mxCell id="TD67UPYNWnN1uYw1Mizn-52" value="CRN checked, data about course displayed" style="rounded=1;whiteSpace=wrap;html=1;" vertex="1" parent="1">
          <mxGeometry x="570" y="260" width="120" height="60" as="geometry" />
        </mxCell>
        <mxCell id="TD67UPYNWnN1uYw1Mizn-55" value="" style="edgeStyle=orthogonalEdgeStyle;rounded=0;orthogonalLoop=1;jettySize=auto;html=1;" edge="1" parent="1" source="TD67UPYNWnN1uYw1Mizn-54" target="TD67UPYNWnN1uYw1Mizn-52">
          <mxGeometry relative="1" as="geometry" />
        </mxCell>
        <mxCell id="TD67UPYNWnN1uYw1Mizn-54" value="&lt;div&gt;&amp;lt;&amp;lt;system&amp;gt;&amp;gt;&lt;/div&gt;&lt;div&gt;Course Database&lt;br&gt;&lt;/div&gt;" style="rounded=0;whiteSpace=wrap;html=1;" vertex="1" parent="1">
          <mxGeometry x="720" y="260" width="120" height="60" as="geometry" />
        </mxCell>
        <mxCell id="TD67UPYNWnN1uYw1Mizn-60" value="" style="edgeStyle=orthogonalEdgeStyle;rounded=0;orthogonalLoop=1;jettySize=auto;html=1;" edge="1" parent="1" source="TD67UPYNWnN1uYw1Mizn-57">
          <mxGeometry relative="1" as="geometry">
            <mxPoint x="630" y="490" as="targetPoint" />
          </mxGeometry>
        </mxCell>
        <mxCell id="TD67UPYNWnN1uYw1Mizn-61" value="Confirm removal" style="edgeLabel;html=1;align=center;verticalAlign=middle;resizable=0;points=[];" vertex="1" connectable="0" parent="TD67UPYNWnN1uYw1Mizn-60">
          <mxGeometry x="-0.325" y="3" relative="1" as="geometry">
            <mxPoint as="offset" />
          </mxGeometry>
        </mxCell>
        <mxCell id="TD67UPYNWnN1uYw1Mizn-57" value="" style="rhombus;whiteSpace=wrap;html=1;" vertex="1" parent="1">
          <mxGeometry x="610" y="370" width="40" height="40" as="geometry" />
        </mxCell>
        <mxCell id="TD67UPYNWnN1uYw1Mizn-62" value="" style="endArrow=classic;html=1;exitX=0;exitY=0.5;exitDx=0;exitDy=0;" edge="1" parent="1" source="TD67UPYNWnN1uYw1Mizn-57">
          <mxGeometry width="50" height="50" relative="1" as="geometry">
            <mxPoint x="540" y="380" as="sourcePoint" />
            <mxPoint x="483" y="90" as="targetPoint" />
            <Array as="points">
              <mxPoint x="530" y="390" />
              <mxPoint x="530" y="90" />
            </Array>
          </mxGeometry>
        </mxCell>
        <mxCell id="TD67UPYNWnN1uYw1Mizn-63" value="Not confirmed" style="edgeLabel;html=1;align=center;verticalAlign=middle;resizable=0;points=[];" vertex="1" connectable="0" parent="TD67UPYNWnN1uYw1Mizn-62">
          <mxGeometry x="-0.7229" relative="1" as="geometry">
            <mxPoint as="offset" />
          </mxGeometry>
        </mxCell>
        <mxCell id="TD67UPYNWnN1uYw1Mizn-69" value="" style="edgeStyle=orthogonalEdgeStyle;rounded=0;orthogonalLoop=1;jettySize=auto;html=1;" edge="1" parent="1" source="TD67UPYNWnN1uYw1Mizn-64">
          <mxGeometry relative="1" as="geometry">
            <mxPoint x="630" y="610" as="targetPoint" />
          </mxGeometry>
        </mxCell>
        <mxCell id="TD67UPYNWnN1uYw1Mizn-71" value="" style="edgeStyle=orthogonalEdgeStyle;rounded=0;orthogonalLoop=1;jettySize=auto;html=1;" edge="1" parent="1" source="TD67UPYNWnN1uYw1Mizn-64" target="TD67UPYNWnN1uYw1Mizn-65">
          <mxGeometry relative="1" as="geometry" />
        </mxCell>
        <mxCell id="TD67UPYNWnN1uYw1Mizn-64" value="Information removed from database" style="rounded=1;whiteSpace=wrap;html=1;" vertex="1" parent="1">
          <mxGeometry x="570" y="490" width="120" height="60" as="geometry" />
        </mxCell>
        <mxCell id="TD67UPYNWnN1uYw1Mizn-65" value="&lt;div&gt;&amp;lt;&amp;lt;system&amp;gt;&amp;gt;&lt;/div&gt;&lt;div&gt;Course Database&lt;br&gt;&lt;/div&gt;" style="rounded=0;whiteSpace=wrap;html=1;" vertex="1" parent="1">
          <mxGeometry x="720" y="490" width="120" height="60" as="geometry" />
        </mxCell>
        <mxCell id="TD67UPYNWnN1uYw1Mizn-67" value="" style="endArrow=none;html=1;" edge="1" parent="1">
          <mxGeometry width="50" height="50" relative="1" as="geometry">
            <mxPoint x="220" y="610" as="sourcePoint" />
            <mxPoint x="650" y="610" as="targetPoint" />
          </mxGeometry>
        </mxCell>
        <mxCell id="TD67UPYNWnN1uYw1Mizn-70" value="" style="endArrow=classic;html=1;entryX=0.5;entryY=0;entryDx=0;entryDy=0;" edge="1" parent="1" target="TD67UPYNWnN1uYw1Mizn-49">
          <mxGeometry width="50" height="50" relative="1" as="geometry">
            <mxPoint x="440" y="610" as="sourcePoint" />
            <mxPoint x="480" y="560" as="targetPoint" />
          </mxGeometry>
        </mxCell>
      </root>
    </mxGraphModel>
  </diagram>
</mxfile>
